<?xml version="1.0" standalone="no"?>
<!DOCTYPE svg PUBLIC "-//W3C//DTD SVG 20010904//EN"
 "http://www.w3.org/TR/2001/REC-SVG-20010904/DTD/svg10.dtd">
<svg version="1.0" xmlns="http://www.w3.org/2000/svg"
 width="258.000000pt" height="258.000000pt" viewBox="0 0 258.000000 258.000000"
 preserveAspectRatio="xMidYMid meet">
<metadata>
Created by potrace 1.11, written by Peter Selinger 2001-2013
</metadata>
<g transform="translate(0.000000,258.000000) scale(0.100000,-0.100000)"
fill="#000000" stroke="none">
<path d="M545 1285 l-1 -755 73 0 74 0 -1 656 -1 657 -67 98 c-37 54 -69 98
-72 99 -3 0 -5 -340 -5 -755z"/>
<path d="M715 1165 l0 -635 73 0 72 0 0 270 c1 149 1 380 1 515 0 135 0 267
-1 294 0 47 -3 53 -67 120 -36 39 -69 71 -72 71 -3 0 -6 -286 -6 -635z"/>
<path d="M1120 1709 c0 -11 3 -19 8 -20 4 0 22 -2 40 -4 18 -2 44 -10 57 -19
46 -31 49 -60 49 -536 1 -424 0 -447 -19 -485 -18 -37 -25 -41 -75 -50 -45 -9
-56 -15 -58 -33 -3 -17 1 -20 20 -16 27 5 328 6 376 0 18 -2 35 0 37 4 10 16
-8 40 -30 40 -46 0 -83 21 -101 58 -14 30 -17 69 -18 231 l-1 196 63 1 63 1
122 -174 c144 -206 248 -323 309 -348 30 -12 68 -17 128 -16 139 2 145 3 142
26 -5 26 -5 26 -40 30 -86 11 -157 48 -226 119 -65 65 -283 342 -288 366 -2 7
6 14 16 15 40 7 143 66 183 105 56 55 83 114 90 198 12 150 -65 257 -217 300
-67 20 -137 24 -382 27 -236 2 -248 1 -248 -16z m587 -89 c87 -37 132 -104
134 -198 4 -149 -62 -235 -196 -259 -76 -14 -225 -9 -235 7 -9 15 -6 452 3
468 4 6 53 9 125 7 95 -2 128 -7 169 -25z"/>
<path d="M1771 1721 c1 -15 147 -76 187 -78 61 -4 136 -39 171 -78 41 -47 54
-96 49 -179 -11 -158 -88 -222 -278 -231 -29 -1 -58 -11 -83 -28 -21 -14 -51
-29 -68 -32 -47 -11 -26 -19 53 -19 l71 -1 73 -105 c142 -205 177 -251 245
-324 88 -95 123 -110 244 -107 138 3 140 3 137 26 -5 25 -1 22 -37 28 -123 20
-181 59 -306 207 -88 104 -219 282 -213 291 3 5 13 9 22 9 34 0 123 50 173 97
65 60 90 117 95 210 6 128 -40 209 -149 263 -34 16 -89 35 -122 41 -64 12
-265 19 -264 10z"/>
<path d="M891 1075 l-1 -545 74 0 73 0 -1 469 -1 469 -45 49 c-25 26 -55 60
-67 76 -11 15 -23 27 -26 27 -4 0 -6 -245 -6 -545z"/>
<path d="M486 1442 c-4 -15 -34 -82 -67 -149 l-61 -122 -1 -320 -2 -321 72 0
73 0 2 466 c2 256 0 468 -3 470 -4 2 -10 -8 -13 -24z"/>
<path d="M321 1124 c0 -6 -31 -50 -67 -98 l-66 -86 -2 -205 -2 -205 73 0 72 0
3 263 c2 144 0 280 -3 302 -3 22 -7 35 -8 29z"/>
<path d="M78 831 l-68 -67 0 -117 0 -117 73 0 72 0 0 185 c0 102 -2 185 -5
184 -3 -1 -35 -31 -72 -68z"/>
</g>
</svg>
